<?xml version="1.0" encoding="utf-8"?>
<!-- Generator: Adobe Illustrator 25.0.1, SVG Export Plug-In . SVG Version: 6.00 Build 0)  -->
<svg version="1.1" id="Ebene_1" xmlns="http://www.w3.org/2000/svg" xmlns:xlink="http://www.w3.org/1999/xlink" x="0px" y="0px"
	 viewBox="0 0 909.82 1302.55" style="enable-background:new 0 0 909.82 1302.55;" xml:space="preserve">
<style type="text/css">
	.st0{fill-rule:evenodd;clip-rule:evenodd;}
</style>
<path class="st0" d="M602.18,138c39.45,0.55,78.91,1.09,118.36,1.64c12.66,1.92,27.8-2.43,35.45,1.64
	c2.11,8.74,0.56,20.73,0.55,30.55c-0.18,17.09-0.36,34.18-0.55,51.27c0,8.73,0,17.46,0,26.18c-0.18,20.36-0.36,40.73-0.55,61.09
	c0,12.48,1.08,27.47-1.09,38.18c-1.92,1.29-2.2,1.86-5.45,2.18c-1.75-0.88-2.28-1.01-3.27-2.73c-4.48-7.29-0.55-44.07-0.55-55.64
	c0.36-47.45,0.73-94.91,1.09-142.36c-0.18,0-0.36,0-0.55,0c-48.72-0.55-97.46-1.09-146.18-1.64c-0.91-1.27-1.82-2.55-2.73-3.82
	c0.73-1.82,1.45-3.64,2.18-5.45C600,138.73,601.09,138.36,602.18,138z"/>
<path class="st0" d="M156,151.64c-0.36,49.45-0.73,98.91-1.09,148.36c0,13.41,4.16,45.94-4.91,50.73c-0.91-0.18-1.82-0.36-2.73-0.55
	c-0.91-1.09-1.82-2.18-2.73-3.27c0.18-51.81,0.36-103.64,0.55-155.45c0-11.47-1.99-47.56,3.27-50.73
	c2.96-1.44,38.08-0.21,46.91,0.55c38.18,0.73,76.37,1.45,114.55,2.18c11.08,1.66,25.41-2.25,33.27,2.18c0,1.82,0,3.64,0,5.45
	c-0.36,0.73-0.73,1.45-1.09,2.18c-14.83,3.94-39.63,0.73-56.18,0C242.55,152.73,199.27,152.18,156,151.64z"/>
<path class="st0" d="M238.91,226.36c-2.36,139.44-4.73,278.92-7.09,418.36c19.45,0.18,38.91,0.36,58.36,0.55
	c11.26,0,25.46-1.19,34.91,1.09c0.73,1.27,1.45,2.55,2.18,3.82c-0.18,0.73-0.36,1.45-0.55,2.18c-0.9,1.99-1.3,2.35-3.27,3.27
	c-30.54,0-61.09,0-91.64,0c-3.45-1.45-6.91-2.91-10.36-4.36c1.82-109.81,3.64-219.65,5.45-329.45c0.36-24.36,0.73-48.73,1.09-73.09
	c0.02-8.22-2.33-24.9,1.64-30c4.37-5.97,60.31-1.64,73.64-1.64c6.91,0,20.11-1.15,22.91,3.27c0.36,1.09,0.73,2.18,1.09,3.27
	c-3.3,6.1-14.64,4.78-24,4.36C281.82,227.45,260.36,226.91,238.91,226.36z"/>
<path class="st0" d="M651.82,658.91c15.46-0.13,53.57-5.74,62.73,0.55c0,1.09,0,2.18,0,3.27c-0.55,1.27-1.09,2.55-1.64,3.82
	c-22.91,1.27-45.82,2.55-68.73,3.82c-0.73-0.36-1.45-0.73-2.18-1.09c-3.11-13-0.55-31.05-0.55-45.27
	c0.18-37.09,0.36-74.19,0.55-111.27c0.73-97.26,1.45-194.56,2.18-291.82c0.91-0.73,1.82-1.45,2.73-2.18
	c1.27,0.18,2.55,0.36,3.82,0.55c1.09,0.91,2.18,1.82,3.27,2.73C653.27,367.62,652.55,513.29,651.82,658.91z"/>
<path class="st0" d="M520.36,213.82c-2.36,0.73-4.73,1.45-7.09,2.18c-5.58,3.61-2.02,20.6-2.73,28.91
	c-0.36,27.45-0.73,54.91-1.09,82.36c-1.27,112.53-2.55,225.1-3.82,337.64c2.55,0.73,5.09,1.45,7.64,2.18
	c4.51-3.94,2.71-16.92,2.73-25.09c0.36-21.63,0.73-43.27,1.09-64.91c5.45,6.54,10.91,13.09,16.36,19.64c12,13.82,24,27.64,36,41.45
	c8.22,10.38,16.15,21.42,26.18,30c0.91-0.18,1.82-0.36,2.73-0.55c2.39-1.18,2.46-2.26,3.82-4.36
	c-4.19-10.79-14.02-17.71-20.73-26.18c-17.63-21.09-35.27-42.18-52.91-63.27c22.54,2,45.09,4,67.64,6c4.13,0.87,4.27,3.06,9.82,3.27
	c0.91-1.09,1.82-2.18,2.73-3.27c2-85.45,4-170.92,6-256.36c0.55-24,1.09-48,1.64-72c0-9.82,0-19.64,0-29.45
	C610.67,210.82,540.09,214.21,520.36,213.82z M598.36,569.45c-27.09-2.55-54.18-5.09-81.27-7.64
	c1.27-112.17,2.55-224.37,3.82-336.55c28.54,0.18,57.09,0.36,85.64,0.55C603.82,340.35,601.09,454.92,598.36,569.45z"/>
<path class="st0" d="M480,564c-3.2-2.62-14.32-2.28-19.64-2.18c2-82.9,4-165.83,6-248.73c0.55-22.18,1.09-44.37,1.64-66.55
	c0.94-6.1,2.62-21.1,0-25.64c-2.75-4.76-18.35-2.73-25.64-2.73c-18.57,0-69.36-5.18-80.18,2.73c-1.09,95.63-2.18,191.28-3.27,286.91
	c-0.36,46-0.73,92-1.09,138c0.91,1.09,1.82,2.18,2.73,3.27c1.27,0,2.55,0,3.82,0c0.91-0.55,1.82-1.09,2.73-1.64
	c2.06-8.51,1.09-21.35,1.09-31.64c0.18-16,0.36-32,0.55-48c26.72,1.27,53.46,2.55,80.18,3.82c-0.36,25.82-0.73,51.64-1.09,77.45
	c0.91,1.09,1.82,2.18,2.73,3.27c0.91,0.18,1.82,0.36,2.73,0.55c0.91-0.36,1.82-0.73,2.73-1.09c5.04-8.9,3.98-63.61,3.82-79.09
	c7.49,0.09,14.98,1.03,20.73-0.55c0.36-0.73,0.73-1.45,1.09-2.18c0.18-1.45,0.36-2.91,0.55-4.36
	C481.45,565.09,480.73,564.55,480,564z M449.45,560.73c-26.91-1.27-53.82-2.55-80.73-3.82c1.09-109.44,2.18-218.92,3.27-328.36
	c28.72,0.18,57.46,0.36,86.18,0.55C455.27,339.63,452.36,450.19,449.45,560.73z"/>
<path class="st0" d="M197.45,672.55c1.09,0.18,2.18,0.36,3.27,0.55c0.91,1.09,1.82,2.18,2.73,3.27
	c-1.64,138.53-3.27,277.1-4.91,415.64c23.27-103.99,46.55-208.01,69.82-312c5.45-24.36,10.91-48.73,16.36-73.09
	c1.98-7.86,1.98-24.66,8.18-28.36c1.45,0,2.91,0,4.36,0c5.95,3.14,1.11,16.87-0.55,23.45c-5.82,26-11.64,52-17.45,78
	c-17.82,78.9-35.64,157.83-53.45,236.73c-5.27,23.63-10.55,47.28-15.82,70.91c-2.5,10.07-2.92,22.05-7.64,30
	c-4.52,1.01-5.19,1.84-8.18,4.91c-4.08-0.06-5.3-0.99-6.55-3.82c1.45-109.63,2.91-219.28,4.36-328.91
	c0.36-26.91,0.73-53.82,1.09-80.73c0.69-11.39-2.23-27.59,2.18-35.45C196,673.27,196.73,672.91,197.45,672.55z"/>
<path class="st0" d="M484.91,678c1.82,0.73,3.64,1.45,5.45,2.18c0,27.82,0,55.64,0,83.45c-0.36,40-0.73,80-1.09,120
	c-0.73,75.63-1.45,151.28-2.18,226.91c-0.91,0.73-1.82,1.45-2.73,2.18c-1.27-0.18-2.55-0.36-3.82-0.55
	c-1.09-0.91-2.18-1.82-3.27-2.73c1.27-142.71,2.55-285.47,3.82-428.18C482.36,680.18,483.64,679.09,484.91,678z"/>
<path class="st0" d="M424.36,670.91c-9.97-2.11-21.8,0.71-33.82-1.09c-21.63-0.36-43.27-0.73-64.91-1.09
	c-1.64,1.64-3.27,3.27-4.91,4.91c-2.36,112.35-4.73,224.74-7.09,337.09c-0.55,27.63-1.09,55.28-1.64,82.91
	c-1.58,10.36-1.22,23.77,3.82,27.82c18.67-2.28,83.47-9.23,97.09-1.09c1.82-0.55,3.64-1.09,5.45-1.64
	c7.39-30.65-2.21-67.55,2.73-100.36c1.64-76.72,3.27-153.46,4.91-230.18c0.55-26.91,1.09-53.82,1.64-80.73
	C427.64,693.93,429.83,679.43,424.36,670.91z M409.09,1106.18c-28.72,0.91-57.46,1.82-86.18,2.73
	c2.73-142.89,5.45-285.83,8.18-428.73c3.07-2.63,16.89-0.55,22.91-0.55c21.09,0.36,42.18,0.73,63.27,1.09
	C414.55,822.53,411.82,964.38,409.09,1106.18z"/>
<path class="st0" d="M694.36,691.09c-1.45,111.81-2.91,223.65-4.36,335.45c-0.18,24.72-0.36,49.46-0.55,74.18
	c0,10.29,2.14,23.72-4.91,27.27c-2.96-0.3-3.75-0.65-4.91-2.73c-4.01-6.69-0.73-25.1-0.55-33.27c0.18-28.18,0.36-56.37,0.55-84.55
	c1.27-105.44,2.55-210.92,3.82-316.36c-14.53,0.21-38.37-0.07-47.4-0.21c-1.53-0.06-1.28-4.44-1.33-5.61c0-1.39,0.27-4.48,2.36-4.55
	c28.36,0,56.73,0,85.09,0c6.76,0,16.91-2.07,16.91,4.91c-0.51,3.23-1.26,4.3-3.82,5.45C721.64,691.09,708,691.09,694.36,691.09z"/>
<path class="st0" d="M527.45,1114.91c24.54-0.55,49.09-1.09,73.64-1.64c0-29.45,0-58.91,0-88.36c-9.23,0.19-43.21,3.89-46.36-1.09
	c-0.36-1.27-0.73-2.55-1.09-3.82c1.24-1.66,1.24-2.27,3.27-3.27c7.54-3.38,44.46-3.59,52.36-1.64c7.42,15.91,2.22,53.59,2.18,68.73
	c-0.03,11.95,1.64,28.6-1.09,37.09c-9.64,4.45-82.1,7.48-90,2.18c-3.61-6.01-4.91-21.38-3.27-32.18
	c0.55-27.45,1.09-54.91,1.64-82.36c2.36-107.44,4.73-214.92,7.09-322.36c3.88-4.68,64.99-5.04,70.91-1.64
	c0.36,1.09,0.73,2.18,1.09,3.27c-4.85,10.9-48,3.03-62.18,6.55C532.91,834.53,530.18,974.74,527.45,1114.91z"/>
<path class="st0" d="M754.91,1144.91c0.91-64.9,1.82-129.82,2.73-194.73c1.66-2.29,2.56-3.15,6.55-3.27
	c1.41,0.94,1.86,1.15,2.73,2.73c3.81,7.05,0.55,32.7,0.55,43.09c-0.55,38.18-1.09,76.37-1.64,114.55
	c-2.18,14.41,5.18,41.7-5.45,47.45c-8.62,3.99-42.27,1.63-55.64,1.64c-40.91,0.55-81.82,1.09-122.73,1.64
	c-0.73-0.91-1.45-1.82-2.18-2.73c0.18-1.45,0.36-2.91,0.55-4.36c6.74-7.75,30.75-1.27,44.18-3.27
	C668,1146.73,711.46,1145.82,754.91,1144.91z"/>
<path class="st0" d="M152.18,1150.36c31.82,0.91,63.64,1.82,95.45,2.73c10.81,1.63,21.1-1.48,27.82,3.27c0,0.18,0,0.36,0,0.55
	c-0.04,3.31-0.54,4.12-1.64,6c-9.56,2.53-27.41,1.62-38.18,0c-7.82,0-15.64,0-23.45,0c-20.79-3.11-49.11-1.76-66.55,1.09
	c-1.75-0.88-2.28-1.01-3.27-2.73c-4.26-7-0.56-25.05-0.55-33.82c0.36-24.54,0.73-49.09,1.09-73.64c0.02-11.03-1.83-27.05,2.73-33.82
	c0.36-0.18,0.73-0.36,1.09-0.55c3.31,0.03,4.12,0.54,6,1.64c2.64,9.92,0.55,23.67,0.55,34.91
	C152.91,1087.45,152.55,1118.91,152.18,1150.36z"/>
</svg>
