<svg id="Layer_1" data-name="Layer 1" xmlns="http://www.w3.org/2000/svg" viewBox="0 0 484.97 332.48"><defs><style>.cls-1{fill:#fff;}</style></defs><path class="cls-1" d="M476.35,594.72c-.15.24-13.72,20.58-39.66,25.17-9.32,1.64-42.28,5-74.93-21.13-27.74-22.19-30.38-59.52-30.23-74.54.33-32.82,13.57-66.78,33.72-86.5,22.7-22.22,42-32,68.95-34.92,20.65-2.24,37.79,6.56,50.95,26.15,3.57,5.32,27,31,49.72,137.32,11.46,53.63,20.07,102.54,21.56,111.3h58.35l144.7-300.83H696.26L596.8,584.19c-1.92-9.59-4-19.55-6.13-29.64-24-112.53-49-143.73-58.2-157.4-25.17-37.46-62.25-55.59-104.4-51-40,4.32-70.69,19.53-102.69,50.85C294.49,427.2,275,475.74,274.52,523.65c-.23,23.36,4.33,81.79,51.62,119.63,51.34,41.07,105.19,35.45,120.47,32.75,50.83-9,75.45-46.77,78.3-51.43l-48.69-29.66Z" transform="translate(-274.52 -345.43)"/></svg>